<svg width="16" height="15" viewBox="0 0 16 15" fill="none" xmlns="http://www.w3.org/2000/svg">
<g clip-path="url(#clip0_318_7595)">
<path d="M8.04789 1.35083C8.38534 1.35083 8.65889 1.62439 8.65889 1.96183V9.04078L11.2819 6.41781C11.5205 6.1792 11.9073 6.1792 12.146 6.41781C12.3846 6.65642 12.3846 7.04329 12.146 7.2819L8.47994 10.9479C8.24132 11.1865 7.85446 11.1865 7.61585 10.9479L3.94983 7.2819C3.71122 7.04329 3.71122 6.65642 3.94983 6.41781C4.18844 6.1792 4.57531 6.1792 4.81392 6.41781L7.43689 9.04078V1.96183C7.43689 1.62439 7.71044 1.35083 8.04789 1.35083Z" fill="#90BDE0"/>
<path d="M3.45508 13.6957H12.6404" stroke="#90BDE0" stroke-width="1.22196" stroke-linecap="round"/>
</g>
<defs>
<clipPath id="clip0_318_7595">
<rect width="14.6641" height="14.6641" fill="white" transform="translate(0.71582 0.111328)"/>
</clipPath>
</defs>
</svg>
