<svg width="15" height="15" viewBox="0 0 15 15" fill="none" xmlns="http://www.w3.org/2000/svg">
<g clip-path="url(#clip0_318_7754)">
<path d="M7.33204 1.36743C7.66949 1.36743 7.94304 1.64099 7.94304 1.97843V9.05738L10.566 6.43441C10.8046 6.1958 11.1915 6.1958 11.4301 6.43441C11.6687 6.67302 11.6687 7.05989 11.4301 7.2985L7.76409 10.9645C7.52547 11.2031 7.13861 11.2031 6.9 10.9645L3.23398 7.2985C2.99537 7.05989 2.99537 6.67302 3.23398 6.43441C3.47259 6.1958 3.85946 6.1958 4.09807 6.43441L6.72104 9.05738V1.97843C6.72104 1.64099 6.99459 1.36743 7.33204 1.36743Z" fill="#3471AC"/>
<path d="M2.73926 13.7123H11.9246" stroke="#3471AC" stroke-width="1.22196" stroke-linecap="round"/>
</g>
<defs>
<clipPath id="clip0_318_7754">
<rect width="14.6641" height="14.6641" fill="white" transform="translate(0 0.12793)"/>
</clipPath>
</defs>
</svg>
