<svg xmlns="http://www.w3.org/2000/svg" width="31" height="31" viewBox="0 0 31 31" fill="none">
  <path d="M10.3919 21.7043C10.2072 21.518 10.103 21.2666 10.1019 21.0043C10.1004 20.7385 10.2047 20.483 10.3919 20.2943L14.2819 16.4043L10.3919 12.5143C10.0042 12.1242 10.0042 11.4943 10.3919 11.1043C10.5782 10.9195 10.8296 10.8154 11.0919 10.8143C11.3577 10.8127 11.6132 10.9171 11.8019 11.1043L15.6919 14.9943L19.5819 11.1043C19.972 10.7165 20.6019 10.7165 20.9919 11.1043C21.1767 11.2905 21.2808 11.5419 21.2819 11.8043C21.2835 12.0701 21.1791 12.3256 20.9919 12.5143L17.1019 16.4043L20.9919 20.2943C21.3796 20.6843 21.3796 21.3142 20.9919 21.7043C20.8057 21.889 20.5543 21.9932 20.2919 21.9943C20.0261 21.9958 19.7706 21.8915 19.5819 21.7043L15.6919 17.8143L11.8019 21.7043C11.4119 22.092 10.782 22.092 10.3919 21.7043Z" fill="#90BDE0"/>
</svg>